<svg data-v-0dd9719b="" version="1.0" xmlns="http://www.w3.org/2000/svg" xmlns:xlink="http://www.w3.org/1999/xlink" width="100%" height="100%" viewBox="0 0 340.000000 250.000000" preserveAspectRatio="xMidYMid meet" color-interpolation-filters="sRGB" style="margin: auto;"> <rect data-v-0dd9719b="" x="0" y="0" width="100%" height="100%" fill="#ffffff" fill-opacity="1" class="background"></rect> <rect data-v-0dd9719b="" x="0" y="0" width="100%" height="100%" fill="url(#watermark)" fill-opacity="1" class="watermarklayer"></rect> <g data-v-0dd9719b="" fill="#edb64a" class="icon-text-wrapper icon-svg-group iconsvg" transform="translate(81.56999969482422,76.84531784057617)"><g class="iconsvg-imagesvg" transform="translate(58.43000030517578,0)"><g><rect fill="#edb64a" fill-opacity="0" stroke-width="2" x="0" y="0" width="60" height="58.99937067337948" class="image-rect"></rect> <svg filter="url(#colors8929275376)" x="0" y="0" width="60" height="58.99937067337948" filtersec="colorsf4059257475" class="image-svg-svg primary" style="overflow: visible;"><svg fill="#000000" xmlns="http://www.w3.org/2000/svg" xmlns:xlink="http://www.w3.org/1999/xlink" version="1.0" x="0px" y="0px" viewBox="8 8.667 84 82.666" enable-background="new 0 0 100 100" xml:space="preserve"><polygon fill="none" stroke="#000000" stroke-width="2" stroke-linecap="round" stroke-linejoin="round" stroke-miterlimit="10" points="  10,82.666 23.333,89.333 23.333,72.001 10,65.334 "></polygon><polygon stroke="#000000" stroke-width="2" stroke-linecap="round" stroke-linejoin="round" stroke-miterlimit="10" points="  36.667,65.334 23.333,72.001 10,65.334 23.333,58.668 "></polygon><polygon fill="none" stroke="#000000" stroke-width="2" stroke-linecap="round" stroke-linejoin="round" stroke-miterlimit="10" points="  23.334,58.668 36.667,65.334 36.667,47.999 23.334,41.333 "></polygon><polygon stroke="#000000" stroke-width="2" stroke-linecap="round" stroke-linejoin="round" stroke-miterlimit="10" points="  50.001,41.333 36.667,47.999 23.334,41.333 36.667,34.667 "></polygon><polygon fill="none" stroke="#000000" stroke-width="2" stroke-linecap="round" stroke-linejoin="round" stroke-miterlimit="10" points="  36.668,34.667 50.001,41.333 50.001,23.999 36.668,17.335 "></polygon><polygon stroke="#000000" stroke-width="2" stroke-linecap="round" stroke-linejoin="round" stroke-miterlimit="10" points="  63.335,17.335 50.001,23.999 36.668,17.335 50.001,10.667 "></polygon><polygon fill="none" stroke="#000000" stroke-width="2" stroke-linecap="round" stroke-linejoin="round" stroke-miterlimit="10" points="  50.001,58.668 63.333,65.334 63.333,47.999 50.001,41.333 "></polygon><polygon stroke="#000000" stroke-width="2" stroke-linecap="round" stroke-linejoin="round" stroke-miterlimit="10" points="  76.668,41.333 63.333,47.999 50.001,41.333 63.333,34.667 "></polygon><polygon fill="none" stroke="#000000" stroke-width="2" stroke-linecap="round" stroke-linejoin="round" stroke-miterlimit="10" points="  36.667,82.666 49.999,89.333 49.999,72.001 36.667,65.334 "></polygon><polygon stroke="#000000" stroke-width="2" stroke-linecap="round" stroke-linejoin="round" stroke-miterlimit="10" points="  63.333,65.334 49.999,72.001 36.667,65.334 49.999,58.668 "></polygon><polygon fill="none" stroke="#000000" stroke-width="2" stroke-linecap="round" stroke-linejoin="round" stroke-miterlimit="10" points="  63.333,82.666 76.666,89.333 76.666,72.001 63.333,65.334 "></polygon><polygon stroke="#000000" stroke-width="2" stroke-linecap="round" stroke-linejoin="round" stroke-miterlimit="10" points="  90,65.334 76.666,72.001 63.333,65.334 76.666,58.668 "></polygon><polygon fill="none" stroke="#000000" stroke-width="2" stroke-linecap="round" stroke-linejoin="round" stroke-miterlimit="10" points="  36.667,82.666 23.333,89.333 23.333,72.001 36.667,65.334 "></polygon><polygon fill="none" stroke="#000000" stroke-width="2" stroke-linecap="round" stroke-linejoin="round" stroke-miterlimit="10" points="  50.001,58.668 36.667,65.334 36.667,47.999 50.001,41.333 "></polygon><polygon fill="none" stroke="#000000" stroke-width="2" stroke-linecap="round" stroke-linejoin="round" stroke-miterlimit="10" points="  63.335,34.667 50.001,41.333 50.001,23.999 63.335,17.335 "></polygon><polygon fill="none" stroke="#000000" stroke-width="2" stroke-linecap="round" stroke-linejoin="round" stroke-miterlimit="10" points="  76.668,58.668 63.333,65.334 63.333,47.999 76.668,41.333 "></polygon><polygon fill="none" stroke="#000000" stroke-width="2" stroke-linecap="round" stroke-linejoin="round" stroke-miterlimit="10" points="  63.333,82.666 49.999,89.333 49.999,72.001 63.333,65.334 "></polygon><polygon fill="none" stroke="#000000" stroke-width="2" stroke-linecap="round" stroke-linejoin="round" stroke-miterlimit="10" points="  90,82.666 76.666,89.333 76.666,72.001 90,65.334 "></polygon></svg></svg> <defs><filter id="colors8929275376"><feColorMatrix type="matrix" values="0 0 0 0 0.1328125  0 0 0 0 0.12890625  0 0 0 0 0.60546875  0 0 0 1 0" class="icon-fecolormatrix"></feColorMatrix></filter> <filter id="colorsf4059257475"><feColorMatrix type="matrix" values="0 0 0 0 0.99609375  0 0 0 0 0.99609375  0 0 0 0 0.99609375  0 0 0 1 0" class="icon-fecolormatrix"></feColorMatrix></filter> <filter id="colorsb4401987734"><feColorMatrix type="matrix" values="0 0 0 0 0  0 0 0 0 0  0 0 0 0 0  0 0 0 1 0" class="icon-fecolormatrix"></feColorMatrix></filter></defs></g></g> <g transform="translate(0,65.99937057495117)"><g data-gra="path-name" fill-rule="" class="tp-name iconsvg-namesvg"><g transform="scale(1)"><g><path d="M21.37 0L9.16-21.96 9.16 0 3.05 0 3.05-29.95 11.22-29.95 23.12-7.63 23.12-29.95 29.18-29.95 29.18 0 21.37 0ZM48.45-30.13L48.45-30.13Q52.94-30.13 56.35-28.6L56.35-28.6Q60.34-26.76 61.96-22.45L61.96-22.45Q63.22-19.08 63.22-14.55L63.22-14.55Q63.22-9.97 61.69-6.6L61.69-6.6Q59.76-2.6 55.76-0.99L55.76-0.99Q52.8 0.18 48.94 0.18L48.94 0.18Q43.87 0.18 40.14-1.71L40.14-1.71Q37-3.28 35.34-6.65 33.67-10.01 33.67-14.82L33.67-14.82Q33.67-23.39 37.94-27.03L37.94-27.03Q41.53-30.08 48.45-30.13ZM48.49-25.1L48.49-25.1Q44.09-25.1 42.21-22.22L42.21-22.22Q40.68-19.98 40.68-15L40.68-15Q40.68-9.74 42.56-7.27L42.56-7.27Q44.45-4.85 48.54-4.85L48.54-4.85Q52.49-4.85 54.35-7.32 56.21-9.79 56.21-14.95L56.21-14.95Q56.21-19.67 54.69-22.14L54.69-22.14Q52.94-25.05 48.49-25.1ZM79.2-11.36L74.08-11.36 74.08 0 67.71 0 67.71-29.95 82.34-29.95Q88.63-29.95 91.1-28.33L91.1-28.33Q92.81-27.25 93.73-25.48 94.65-23.71 94.65-21.6L94.65-21.6Q94.65-17.33 92.49-15L92.49-15Q91.14-13.6 88.94-12.89L88.94-12.89Q90.7-12.26 91.59-11.56 92.49-10.87 93.21-9.52L93.21-9.52Q93.75-8.44 94-7.45 94.24-6.47 94.38-4.53L94.38-4.53Q94.65-1.3 95.1 0L95.1 0 87.96 0Q87.64-1.03 87.28-4.27L87.28-4.27Q87.06-6.87 86.36-8.26 85.67-9.65 84.28-10.46L84.28-10.46Q82.52-11.4 79.2-11.36L79.2-11.36ZM74.08-24.6L74.08-16.7 83.02-16.7Q85.26-16.7 86.21-17.38L86.21-17.38Q87.64-18.36 87.64-20.83L87.64-20.83Q87.64-23.57 85.49-24.34L85.49-24.34Q84.72-24.6 83.02-24.6L83.02-24.6 74.08-24.6ZM106.41 0L106.41-24.6 96.89-24.6 96.89-29.95 122.71-29.95 122.71-24.6 112.79-24.6 112.79 0 106.41 0ZM137.71-29.95L148.44-29.95 148.44-24.6 140.13-24.6Q136.9-24.6 135.42-24.16 133.93-23.71 132.95-22.4L132.95-22.4Q132.27-21.51 132.03-20.61 131.78-19.71 131.6-17.56L131.6-17.56 148.44-17.56 148.44-12.21 131.6-12.21Q131.96-8.35 133.89-6.85 135.82-5.34 140.44-5.34L140.44-5.34 148.44-5.34 148.44 0 140.13 0Q136.76 0 134.2-0.4L134.2-0.4Q130.16-1.08 127.78-3.95L127.78-3.95Q124.37-8.08 124.37-15.13L124.37-15.13Q124.37-22.94 129.17-27.3L129.17-27.3Q130.84-28.78 132.7-29.36 134.56-29.95 137.71-29.95L137.71-29.95ZM153.46-29.95L159.84-29.95 159.84 0 153.46 0 153.46-29.95ZM170.93 0L160.06-15.13 171.51-29.95 179.91-29.95 167.38-15.13 179.33 0 170.93 0Z" transform="translate(-3.049999952316284, 30.1299991607666)"></path></g> <!----> <!----> <!----> <!----> <!----> <!----> <!----></g></g> <!----></g></g><defs v-gra="od"></defs></svg>